<svg xmlns="http://www.w3.org/2000/svg" viewBox="0 0 24 24" width="24" height="24">
  <path d="M0 24V0h24v24z" fill="none"/>
  <path d="M12 22.8C6.0353 22.8 1.2 17.9647 1.2 12 1.2 6.0353 6.0353 1.2 12 1.2c5.9647 0 10.8 4.8353 10.8 10.8 0 5.9647-4.8353 10.8-10.8 10.8z"/>
  <path fill="#fff" d="M15.3283 6.8c-.13 0-.2698.0585-.3738.1625l-.8775.8775 2.08 2.08.8775-.8775c.208-.208.208-.5753 0-.7312l-1.3487-1.3488c-.104-.104-.2275-.1625-.3575-.1625zM13.557 8.4087L6.797 15.12v2.08h2.08l6.7112-6.76z"/>
</svg>
